Coordinates
version=1
nRows=4
nColumns=107
inDegrees=yes

Units are S.I. units (second, meters, Newtons, ...)
If the header above contains a line with 'inDegrees', this indicates whether rotational values are in degrees (yes) or radians (no).

endheader
time	sternoclavicular_r2	sternoclavicular_r3	unrotscap_r3	unrotscap_r2	acromioclavicular_r2	acromioclavicular_r3	acromioclavicular_r1	unrothum_r1	unrothum_r3	unrothum_r2	elv_angle	shoulder_elv	shoulder1_r2	shoulder_rot	elbow_flexion	pro_sup	deviation	flexion	proximal_distal_r1	proximal_distal_r3	cmc_flexion	cmc_abduction	mp_flexion	ip_flexion	mcp2_flexion	mcp2_abduction	pm2_flexion	md2_flexion	mcp3_flexion	mcp3_abduction	pm3_flexion	md3_flexion	mcp4_flexion	mcp4_abduction	pm4_flexion	md4_flexion	mcp5_flexion	mcp5_abduction	pm5_flexion	md5_flexion	bicpt_tx	bicpt_ty	bicpt_tz	bicpt2_tx	bicpt2_ty	bicpt2_tz	ptpt_tx	ptpt_ty	ptpt_tz	FCUpt_tx	FCUpt_ty	FCUpt_tz	EDCpt_tx	EDCpt_ty	EDCpt_tz	APLpt_tx	APLpt_ty	APLpt_tz	FPLpt_tx	FPLpt_ty	FPLpt_tz	FPLpt2_tx	FPLpt2_ty	FPLpt2_tz	PEC1pt2_tx	PEC1pt2_ty	PEC1pt2_tz	PEC1pt3_tx	PEC1pt3_ty	PEC1pt3_tz	PEC2pt2_tx	PEC2pt2_ty	PEC2pt2_tz	PEC2pt3_tx	PEC2pt3_ty	PEC2pt3_tz	PEC3pt2_tx	PEC3pt2_ty	PEC3pt2_tz	PEC3pt3_tx	PEC3pt3_ty	PEC3pt3_tz	DELT2pt2a_tx	DELT2pt2a_ty	DELT2pt2a_tz	DELT2pt2_tx	DELT2pt2_ty	DELT2pt2_tz	LAT1pt2_tx	LAT1pt2_ty	LAT1pt2_tz	LAT1pt3_tx	LAT1pt3_ty	LAT1pt3_tz	LAT2pt2_tx	LAT2pt2_ty	LAT2pt2_tz	LAT2pt3_tx	LAT2pt3_ty	LAT2pt3_tz	LAT3pt2_tx	LAT3pt2_ty	LAT3pt2_tz	LAT3pt3_tx	LAT3pt3_ty	LAT3pt3_tz
      0.40000000	     -0.32068707	      0.13582791	     -0.13582791	      0.32068707	     -0.06493261	      0.52476251	      0.23587714	     -0.23587714	     -0.52476251	      0.06493261	     99.20660187	     75.92551540	     -1.73148184	    -22.40460252	     28.77077541	     18.31417405	      0.02350149	     -0.78613660	      0.03144217	     -0.39306830	      3.09180429	      7.68841598	    -33.34783903	    -42.96579819	    -21.65555912	      6.45992112	     18.33507867	    -16.82884333	     53.95168534	      8.76801531	     79.90581328	     63.91444662	     40.58130386	     -6.72198781	     89.16136389	     36.16013521	    -14.79040325	    -12.85767140	    -16.91649327	      4.95812506	      0.00085165	     -0.03089757	     -0.00483115	      0.01599596	     -0.01801572	     -0.00945534	      0.00619679	     -0.06577501	     -0.00152531	      0.00566951	     -0.18387941	     -0.00005540	     -0.00219770	      0.00057066	      0.00017466	      0.00028677	      0.00011471	      0.00057354	      0.00036707	      0.00110121	      0.00061943	      0.00004210	     -0.00007198	     -0.00008638	      0.00248867	      0.00873144	      0.00607405	     -0.00814091	      0.01965629	     -0.01864395	      0.00248867	      0.00873144	      0.00607405	      0.00054835	      0.01822214	     -0.00957506	      0.00393879	      0.00485544	      0.01594523	      0.00000000	      0.00770913	      0.00000000	     -0.00712857	     -0.03294327	     -0.00635614	      0.01512517	     -0.00050691	     -0.00417775	     -0.00088580	      0.01484767	     -0.00607405	      0.00244649	      0.02142789	     -0.01771597	     -0.00594750	      0.01286517	     -0.00544133	     -0.01240118	      0.02716449	     -0.03041241	     -0.02328384	      0.01438368	     -0.00729729	     -0.01543820	      0.03138257	     -0.03800497
      0.43333333	     -0.32064365	      0.13580952	     -0.13580952	      0.32064365	     -0.06492382	      0.52469145	      0.23584519	     -0.23584519	     -0.52469145	      0.06492382	     99.20479391	     75.91523407	     -1.73145029	    -22.40351697	     28.76792642	     18.31324676	      0.02348781	     -0.78611261	      0.03142471	     -0.39305630	      3.09283893	      7.68779142	    -33.34771572	    -42.96581167	    -21.65534708	      6.46085186	     18.33492287	    -16.82881873	     53.94974430	      8.76727961	     79.90526854	     63.91429030	     40.58309416	     -6.72212310	     89.16250673	     36.16033232	    -14.78935355	    -12.85842032	    -16.91618132	      4.95815986	      0.00085155	     -0.03089724	     -0.00483110	      0.01599591	     -0.01801495	     -0.00945541	      0.00619686	     -0.06577496	     -0.00152523	      0.00566942	     -0.18387943	     -0.00005538	     -0.00219758	      0.00057063	      0.00017466	      0.00028678	      0.00011471	      0.00057356	      0.00036708	      0.00110124	      0.00061945	      0.00004210	     -0.00007201	     -0.00008641	      0.00248833	      0.00873026	      0.00607322	     -0.00813981	      0.01965363	     -0.01864142	      0.00248833	      0.00873026	      0.00607322	      0.00054828	      0.01821967	     -0.00957376	      0.00393840	      0.00485479	      0.01594427	      0.00000000	      0.00770703	      0.00000000	     -0.00712760	     -0.03293880	     -0.00635439	      0.01512458	     -0.00050688	     -0.00417733	     -0.00088568	      0.01484566	     -0.00607322	      0.00244616	      0.02142498	     -0.01771357	     -0.00594670	      0.01286343	     -0.00544060	     -0.01239950	      0.02716081	     -0.03040829	     -0.02328069	      0.01438173	     -0.00729630	     -0.01543611	      0.03137832	     -0.03799982
      0.46666667	     -0.32163966	      0.13623138	     -0.13623138	      0.32163966	     -0.06512549	      0.52632129	      0.23657780	     -0.23657780	     -0.52632129	      0.06512549	     98.95840175	     76.15104808	     -1.72714993	    -21.30904433	     28.80030808	     17.32976358	      0.02891523	     -0.76849289	      0.03855773	     -0.38424645	      3.30464320	      6.98198370	    -33.57103711	    -42.73740650	    -22.25060243	      6.64038793	     18.27777490	    -16.24554542	     53.05960977	      8.60407248	     80.14701512	     63.31484905	     40.34319667	     -6.71466147	     90.08393590	     36.47636084	    -14.92771153	    -12.94603070	    -16.90820389	      4.96576641	      0.00085262	     -0.03090096	     -0.00483170	      0.01594417	     -0.01802374	     -0.00952982	      0.00626953	     -0.06572798	     -0.00144601	      0.00557714	     -0.18389369	     -0.00003197	     -0.00207957	      0.00053735	      0.00016990	      0.00029169	      0.00011668	      0.00058338	      0.00037337	      0.00112010	      0.00063006	      0.00004239	     -0.00007656	     -0.00009187	      0.00249606	      0.00875738	      0.00609209	     -0.00816509	      0.01971468	     -0.01869933	      0.00249606	      0.00875738	      0.00609209	      0.00054998	      0.01827627	     -0.00960350	      0.00394734	      0.00486987	      0.01596617	      0.00000000	      0.00775532	      0.00000000	     -0.00714974	     -0.03304112	     -0.00639448	      0.01452018	     -0.00047248	     -0.00376601	     -0.00088843	      0.01489177	     -0.00609209	      0.00245376	      0.02149154	     -0.01776859	     -0.00596517	      0.01290338	     -0.00545750	     -0.01243802	      0.02724518	     -0.03050275	     -0.02335301	      0.01442641	     -0.00731897	     -0.01548406	      0.03147579	     -0.03811786
      0.50000000	     -0.32238533	      0.13654721	     -0.13654721	      0.32238533	     -0.06527647	      0.52754149	      0.23712627	     -0.23712627	     -0.52754149	      0.06527647	     98.80018898	     76.32759352	     -1.72438860	    -20.43138819	     28.76088276	     16.51552588	      0.03275130	     -0.76372623	      0.04357022	     -0.38186312	      3.27286199	      6.99912488	    -33.60376663	    -42.60215501	    -22.33095165	      6.65313986	     18.20013468	    -16.24557099	     53.03115642	      8.54423774	     80.18968072	     63.20031606	     40.33945339	     -6.69318954	     89.98599438	     36.52795925	    -14.81096764	    -12.96944158	    -17.01807940	      4.96726552	      0.00085132	     -0.03089644	     -0.00483097	      0.01589966	     -0.01801303	     -0.00959039	      0.00632969	     -0.06568907	     -0.00138041	      0.00550096	     -0.18390530	     -0.00001204	     -0.00198186	      0.00051003	      0.00016556	      0.00029293	      0.00011717	      0.00058586	      0.00037495	      0.00112486	      0.00063273	      0.00004234	     -0.00007587	     -0.00009104	      0.00250185	      0.00877768	      0.00610621	     -0.00818402	      0.01976038	     -0.01874268	      0.00250185	      0.00877768	      0.00610621	      0.00055126	      0.01831864	     -0.00962577	      0.00395402	      0.00488116	      0.01598247	      0.00000000	      0.00779158	      0.00000000	     -0.00716632	     -0.03311772	     -0.00642458	      0.01402395	     -0.00044522	     -0.00344940	     -0.00089049	      0.01492630	     -0.00610621	      0.00245945	      0.02154136	     -0.01780979	     -0.00597900	      0.01293330	     -0.00547015	     -0.01246685	      0.02730834	     -0.03057347	     -0.02340715	      0.01445985	     -0.00733594	     -0.01551996	      0.03154877	     -0.03820623
